# xmcd
#
# Track frame offsets:
#	150
#	10631
#	23092
#	36106
#	48381
#	62020
#	73451
#	85254
#	98538
#	111292
#	124677
#	138552
#	149154
#	159691
#	171753
#	182011
#	192962
#	203997
#	215495
#	227858
#
# Disc length: 3221 seconds
#
# Revision: 0
# Processed by: cddbd v1.5.2PL0 Copyright (c) Steve Scherf et al.
# Submitted via: EasyCDDAExtractor 15.3.0.1
#
DISCID=260c9314
DTITLE=Slim Whitman - TheThe Absolutely Essential 3 cd Collection, Cd 1
DYEAR=2013
DGENRE=Country
TTITLE0=Rose Marie
TTITLE1=Lord Help Me Be As Thou
TTITLE2=China Doll
TTITLE3=I'm Casting My Lasso Towards The Sky
TTITLE4=The End Of The World
TTITLE5=Cattle Call
TTITLE6=When My Blue Moon Turns To Gold Again
TTITLE7=I'll Take You Home Again, Kathleen
TTITLE8=I Talk to the Waves
TTITLE9=Silver-Haired Daddy Of Mine
TTITLE10=Song Of The Old Water Wheel
TTITLE11=Serenade
TTITLE12=Curtain Of Tears
TTITLE13=Warm Warm Lips
TTITLE14=I'll Never Stop Loving You
TTITLE15=Ride Away
TTITLE16=Keep It A Secret
TTITLE17=I Hate to See You Cry
TTITLE18=Blue River
TTITLE19=You Have My Heart
EXTD=
EXTT0=
EXTT1=
EXTT2=
EXTT3=
EXTT4=
EXTT5=
EXTT6=
EXTT7=
EXTT8=
EXTT9=
EXTT10=
EXTT11=
EXTT12=
EXTT13=
EXTT14=
EXTT15=
EXTT16=
EXTT17=
EXTT18=
EXTT19=
PLAYORDER=
